<?xml version="1.0" standalone="no"?><!DOCTYPE svg PUBLIC "-//W3C//DTD SVG 1.1//EN" "http://www.w3.org/Graphics/SVG/1.1/DTD/svg11.dtd"><svg class="icon" width="48px" height="48.00px" viewBox="0 0 1024 1024" version="1.1" xmlns="http://www.w3.org/2000/svg"><path d="M513.4 960.7s-0.1 0 0 0c-0.9 0-85.3-0.8-171.4-7.4-50.7-3.9-92.2-8.9-123.2-15-43.3-8.6-65.7-18.7-72.5-32.9-12.3-25.5-1-56.3 12.1-92 10.3-28.1 22-60 23-93.2 2.9-92.8-71.3-478.6-72.1-482.5-1-5.4 2.5-10.7 7.9-11.7s10.7 2.5 11.7 7.9c3.1 16 75.4 392 72.5 486.9-1.1 36.4-13.4 69.9-24.3 99.4-11.5 31.4-21.5 58.5-12.8 76.4 1.9 4 19.7 24.6 179.3 36.7 85.4 6.5 169.1 7.3 169.9 7.3 5.5 0 10 4.6 9.9 10.1-0.1 5.6-4.5 10-10 10z"  /><path d="M404 233.8H119.1c-24.7 0-48.1-26.6-71.4-81.3-16.1-37.8-26.1-75-26.6-76.6-1.4-5.3 1.7-10.8 7.1-12.2 5.3-1.4 10.8 1.7 12.2 7.1 0.1 0.4 10.1 37.5 25.7 74.1 26.6 62.3 45.9 69 52.9 69h285c5.5 0 10 4.5 10 10s-4.4 9.9-10 9.9zM512.4 960.7c-5.5 0-9.9-4.4-10-9.9 0-5.5 4.4-10 9.9-10.1 0.8 0 84.6-0.8 170-7.3 159.5-12.1 177.2-32.7 179.2-36.7 8.6-17.9-1.3-45-12.8-76.4-10.8-29.5-23.1-63-24.3-99.4-3-95 69.4-471 72.5-486.9 1-5.4 6.3-9 11.7-7.9 5.4 1 9 6.3 7.9 11.7-0.8 3.9-75 389.8-72.1 482.5 1 33.2 12.7 65 23 93.2 13.1 35.7 24.4 66.5 12.1 92-6.9 14.2-29.2 24.3-72.5 32.9-31 6.1-72.5 11.2-123.2 15-86.1 6.5-170.4 7.3-171.4 7.3 0.1 0 0 0 0 0z"  /><path d="M906.7 233.8H621.8c-5.5 0-10-4.5-10-10s4.5-10 10-10h284.9c7.1 0 26.3-6.7 52.9-69 15.6-36.5 25.6-73.7 25.7-74.1 1.4-5.3 6.9-8.5 12.2-7.1 5.3 1.4 8.5 6.9 7.1 12.2-0.4 1.6-10.4 38.7-26.5 76.6-23.3 54.8-46.7 81.4-71.4 81.4zM255.5 537c-2.3 0-4.7-0.8-6.6-2.5-4.2-3.6-4.6-9.9-1-14.1 40.3-46.2 85.8-187.8 86.3-189.3 1.3-4.1 5.2-7 9.5-7h122.4c5.5 0 10 4.5 10 10s-4.5 10-10 10h-115c-9.9 29.9-49.9 145.7-88 189.4-2 2.3-4.8 3.5-7.6 3.5zM779.3 537c-2.8 0-5.6-1.2-7.5-3.4-38.1-43.7-78.1-159.4-88-189.4H568.6c-5.5 0-10-4.5-10-10s4.5-10 10-10H691c4.4 0 8.2 2.8 9.5 7 0.5 1.4 46 143.1 86.3 189.3 3.6 4.2 3.2 10.5-1 14.1-1.8 1.5-4.2 2.4-6.5 2.4z"  /><path d="M652.9 513.7h-286c-5.5 0-10-4.5-10-10s4.5-10 10-10h285.9c5.5 0 10 4.5 10 10s-4.4 10-9.9 10zM652.9 624.1h-286c-5.5 0-10-4.5-10-10s4.5-10 10-10h285.9c5.5 0 10 4.5 10 10s-4.4 10-9.9 10zM652.9 758.5h-286c-5.5 0-10-4.5-10-10s4.5-10 10-10h285.9c5.5 0 10 4.5 10 10s-4.4 10-9.9 10z" fill="#DD6E22" /><path d="M509.9 806.2c-5.5 0-10-4.5-10-10V386.3c0-5.5 4.5-10 10-10s10 4.5 10 10v409.8c0 5.6-4.5 10.1-10 10.1z" fill="#DD6E22" /><path d="M496.3 865.9a16.1 13 0 1 0 32.2 0 16.1 13 0 1 0-32.2 0Z" fill="#E7711E" /><path d="M512.4 889c-14.4 0-26.1-10.3-26.1-23s11.7-23 26.1-23c14.4 0 26.1 10.3 26.1 23s-11.7 23-26.1 23z m0-26.1c-3.9 0-6.1 2.2-6.1 3s2.1 3 6.1 3 6.1-2.2 6.1-3-2.1-3-6.1-3z"  /></svg>