<?xml version="1.0" standalone="no"?><!DOCTYPE svg PUBLIC "-//W3C//DTD SVG 1.1//EN" "http://www.w3.org/Graphics/SVG/1.1/DTD/svg11.dtd"><svg class="icon" width="48px" height="48.00px" viewBox="0 0 1024 1024" version="1.1" xmlns="http://www.w3.org/2000/svg"><path fill="#bfbfbf" d="M497.3 675.5c-27.5 0-58.8-18.2-93.1-54.2-27.6-29-57.3-69.6-88.3-120.5-2-3.3-1-7.6 2.3-9.6s7.6-1 9.6 2.3c30.4 50.1 59.5 89.9 86.4 118.2 33.2 34.9 62.4 51.6 86.7 49.8 28.8-1.8 56.3-12.4 83.9-32.4 68.3-49.5 113.1-136.3 142.7-193.7 3.1-6 6-11.6 8.8-17 7.5-14.2 15.6-19.8 22.2-24.2 6.4-4.4 10-6.8 11.5-17 2.3-15-12.3-59.6-18.1-75.6-0.3-0.8-0.4-1.6-0.4-2.4 0-66.7-26-129.6-73.2-177C631.1 75 568.3 49 501.6 49c-138 0-250.3 112.2-250.3 250.1v52.1c0 1.4-0.4 2.8-1.3 4-0.1 0.1-10 14.9-4.1 26.9 4.2 8.7 13.3 18.3 23.9 29.5 13.1 13.9 27.9 29.6 39 49.2 1.9 3.4 0.7 7.6-2.6 9.5-3.4 1.9-7.6 0.7-9.5-2.6-10.3-18.1-24.5-33.2-37.1-46.5-11.3-12-21.1-22.4-26.3-33-8-16.2 0.6-33.3 4-39.1V299c0-70.6 27.5-136.9 77.4-186.8C364.5 62.5 430.9 35 501.6 35c70.4 0 136.8 27.4 186.8 77.2 49.5 49.8 77 115.7 77.3 185.6 3.6 10 21.4 61.1 18.3 81.3-2.5 16.3-10.1 21.5-17.5 26.5-5.8 3.9-11.8 8-17.6 19.1-2.8 5.3-5.7 10.9-8.8 16.9-30.3 58.6-76 147.2-147 198.6-29.4 21.3-60.1 33.1-91.1 35.1-1.5 0.2-3.1 0.2-4.7 0.2z"  /><path fill="#bfbfbf" d="M758.7 324.2h-99c-36 0-71.3-6.2-104.8-18.5-32.4-11.9-62.3-29.1-89-51.2-53.6-44.4-90.7-106.2-104.4-174v-0.1c-0.3-0.8-0.6-1.9-0.6-3.4 0-3.9 3.1-7 7-7 3.6 0 6.6 2.7 7 6.2 0 0.1 0.1 0.3 0.1 0.4 0.2 0.5 0.3 1.1 0.3 1.6 27.4 134.4 146.9 231.9 284.3 231.9h99c3.9 0 7 3.1 7 7s-3 7.1-6.9 7.1z"  /><path fill="#bfbfbf" d="M245.8 361.6c-3.6 0-6.6-2.7-7-6.4-0.3-3.9 2.5-7.3 6.3-7.6 68.8-6.2 125.6-57.9 132-120.3 0.1-0.7 6.7-79.3-15.9-145.7-0.2-0.6-0.7-2-0.3-5.3 0.4-3.8 3.9-6.6 7.7-6.2 3.8 0.4 6.6 3.8 6.2 7.7v0.2c23.3 69 16.6 147.3 16.3 150.6-3.6 34.9-20.9 67.5-48.6 91.9-26.5 23.3-60.6 37.8-96.1 41-0.2 0.1-0.4 0.1-0.6 0.1zM908.8 984c-3.9 0-7-3.1-7-7v-37.5c0-127.7-96-231.6-214-231.6H589c-3.9 0-7-3.1-7-7v-66.3c0-3.9 3.1-7 7-7s7 3.1 7 7v59.3h91.8c61 0 118.3 25.6 161.4 72.1 42.9 46.4 66.6 108 66.6 173.5V977c0 3.9-3.2 7-7 7zM121.7 983.9c-3.9 0-7-3.1-7-7v-37.4c0-46.6 12.1-91.9 35.1-131 22.4-38.2 54.1-69 91.6-89 3.4-1.8 7.7-0.5 9.5 2.9 1.8 3.4 0.5 7.7-2.9 9.5-73.6 39.3-119.3 118.9-119.3 207.7V977c0 3.8-3.2 6.9-7 6.9zM441.5 708h-25.8c-3.9 0-7-3.1-7-7s3.1-7 7-7h18.8v-36.7c0-3.9 3.1-7 7-7s7 3.1 7 7V701c0 3.9-3.1 7-7 7z"  /><path fill="#bfbfbf" d="M360.8 865.1c-2.5 0-4.8-1.3-6.1-3.5-1.3-2.3-1.2-5.1 0.2-7.3 14-21.3 19.5-45.5 14.5-63-2.8-9.8-8.6-16.8-17.1-21-79.9-19.9-137.4-46.3-171-78.6-29.2-28.1-40.5-61.3-32.6-96.1 8.1-35.8 36.7-73.3 78.5-103 37.5-26.6 77-40.7 100.5-36 3.7 0.7 6.1 4.3 5.5 8-22.4 140.2 12.2 169.1 126.9 264.9 0.4 0.4 0.8 0.8 1.1 1.2 23 30.9 29.4 57.9 19 80.2-22.4 48-115.1 54-119.1 54.2h-0.3z m-43-395.4c-20.4 0-52.8 13.3-82.4 34.3-39 27.7-65.6 62.2-72.9 94.6-6.8 30.2 2.8 58.1 28.6 82.9 31.9 30.6 87.5 56 165.3 75.3 0.4 0.1 0.9 0.3 1.3 0.4 12.6 5.8 21.3 16.2 25.3 30.1 5.2 18.2 1.7 40.7-9.2 62.3 25.4-3.3 79.5-13.9 93.9-44.7 8-17.1 2.2-39.1-17.1-65.2-61.9-51.7-98-82.9-118.6-121.2-20.1-37.3-24-79.4-13.6-148.8h-0.6z"  /></svg>