<?xml version="1.0" standalone="no"?><!DOCTYPE svg PUBLIC "-//W3C//DTD SVG 1.1//EN" "http://www.w3.org/Graphics/SVG/1.1/DTD/svg11.dtd"><svg class="icon" width="48px" height="48.00px" viewBox="0 0 1024 1024" version="1.1" xmlns="http://www.w3.org/2000/svg"><path fill="#ffffff" d="M157.8 99.8c-79.2 59.1-95.5 170.9-37.2 250.4L408.4 135c-59.6-78.5-171.6-94.4-250.6-35.2zM560 543.3c0-23.3-16.6-42.7-38.5-47.1V329.4h-18.1v166.9c-22.4 4-39.4 23.5-39.4 47 0 26.4 21.4 47.9 47.9 47.9 14.6 0 27.5-6.5 36.3-16.8L676 611.8l7.8-26.7-124.4-36.4c0.3-1.8 0.6-3.6 0.6-5.4zM512.1 189.7c-195.4 0-353.7 158.3-353.6 353.6 0 95 37.6 181.1 98.4 244.6l-38.6 137.3c-2.9 10.4 2.9 22.6 12.7 27l13.3 6c9.8 4.4 22.7 0.5 28.6-8.5l64.1-99.3c51.7 29.5 111.4 46.5 175.2 46.5 63.6 0 123.3-17 175-46.5l64.1 99.3c5.9 9.2 18.8 12.9 28.6 8.5l13.3-6c10-4.4 15.6-16.6 12.7-27l-38.6-137.3c61-63.6 98.4-149.7 98.4-244.6 0-195.3-158.3-353.6-353.6-353.6z m0 631.7c-153.7 0-278.3-124.6-278.3-278.3S358.4 265 512.1 265s278.2 124.6 278.2 278.2c-0.1 153.7-124.7 278.2-278.2 278.2zM866.2 99.8c-79-59.1-191-43.3-250.6 35.2l287.8 215.2c58.4-79.6 42-191.3-37.2-250.4z" /></svg>