<?xml version="1.0" standalone="no"?><!DOCTYPE svg PUBLIC "-//W3C//DTD SVG 1.1//EN" "http://www.w3.org/Graphics/SVG/1.1/DTD/svg11.dtd"><svg class="icon" width="48px" height="48.00px" viewBox="0 0 1024 1024" version="1.1" xmlns="http://www.w3.org/2000/svg"><path d="M454.6 293.1c9.9 0 18 12.1 18 27s-8.1 27-18 27-18-12.1-18-27 8.1-27 18-27z" fill="#DD6E22" /><path d="M683 987.9c-1.4 0-2.8-0.3-4.2-0.9-5-2.3-7.2-8.3-4.9-13.3 0.6-1.4 64.5-139.9 119.8-329.9 1.6-5.6 3.3-11.2 4.9-16.9 29-101.9 4.4-172.5-30.7-254.2-2.2-5-4.4-10.1-6.5-15.2-18.2-42-37-85.4-48-135.2-12.5-56.6-12.8-113.5-1.1-174.1 1.1-5.4 6.3-9 11.7-7.9 5.4 1.1 9 6.3 7.9 11.7-25.1 129.2 11.9 214.8 47.8 297.6 2.2 5.1 4.4 10.2 6.6 15.2 35.4 82.5 62.3 159.5 31.6 267.6-1.6 5.7-3.3 11.4-4.9 17.1C757.2 841 692.8 980.8 692.1 982.2c-1.7 3.6-5.4 5.7-9.1 5.7zM351.5 987.9c-3.8 0-7.4-2.1-9.1-5.8-0.7-1.5-68.9-149.5-125.8-349.7-33.5-117.8-4.3-198.1 26.5-283.2 30-82.7 61-168.1 35.9-297.2-1.1-5.4 2.5-10.7 7.9-11.7 5.4-1.1 10.7 2.5 11.7 7.9 11.7 60.2 12.6 116.8 2.8 173.1-8.7 49.6-24.4 92.9-39.5 134.7-29.7 82-57.8 159.4-26.1 270.9 56.4 198.6 124 345.3 124.7 346.8 2.3 5 0.1 11-4.9 13.3-1.2 0.6-2.7 0.9-4.1 0.9z"  /><path d="M367.6 467.9c-46 0-92.9-12.8-142.7-38.8-4.9-2.6-6.8-8.6-4.2-13.5 2.6-4.9 8.6-6.8 13.5-4.2 126 65.8 206.3 29.6 291.4-8.8 72.3-32.6 147-66.3 253.6-43.7 5.4 1.1 8.9 6.5 7.7 11.9-1.1 5.4-6.5 8.9-11.9 7.7-100.2-21.2-171.9 11.1-241.2 42.4-42.9 19.3-87.3 39.4-136.7 45.3-9.8 1.1-19.6 1.7-29.5 1.7zM499.2 688.5c-0.8 0-1.6-0.1-2.5-0.3-5.4-1.4-8.6-6.8-7.2-12.2 1.1-4.5 2.2-8.5 3.2-12.2 14.2-51.4 31.9-88.8 52.8-111.1 3.8-4 10.1-4.3 14.1-0.5s4.3 10.1 0.5 14.1c-18.6 20-34.8 54.6-48.1 102.9-1 3.6-2 7.5-3.1 11.8-1.1 4.4-5.2 7.5-9.7 7.5z"  /><path d="M464.8 969.9h-0.2c-5.5-0.1-9.9-4.7-9.8-10.2 0.4-16.5 4.4-164.9 34.7-283.5 1.4-5.4 6.8-8.6 12.2-7.2 5.4 1.4 8.6 6.8 7.2 12.2-30.2 118.5-33.9 272.5-34.1 279-0.1 5.4-4.6 9.7-10 9.7z"  /><path d="M474.8 960.5l-10-0.1h-10v-0.9c0.7-16.4 7.4-164.1 34.6-283v-0.1-0.2c1-4.2 1.9-8.1 2.8-11.8 0.5-2 1.5-3.7 3-5.1l0.4-0.4c68.7-62.2 135.3-90.4 197.9-83.8 75.3 7.9 116.1 63.3 117.8 65.6 3.2 4.5 2.2 10.7-2.2 14-4.5 3.2-10.7 2.2-14-2.2-0.5-0.7-37.7-50.7-104-57.5-56.1-5.8-116.8 20.2-180.3 77.2-0.6 2.6-1.3 5.3-1.9 8.3 0 0.2-0.1 0.4-0.2 0.7-27.2 119.1-33.8 272.7-34.1 279.2l0.2 0.1z"  /><path d="M490 698.1c-3.3 0-6.6-1.7-8.5-4.7-34.1-54.5-86.5-80.3-155.6-76.7-52.5 2.7-95 21.9-95.4 22.1-5 2.3-11 0.1-13.3-4.9-2.3-5-0.1-11 4.9-13.3 1.9-0.9 46.5-21.1 102.8-23.9 75.8-3.9 135.8 25.9 173.6 86.1 2.9 4.7 1.5 10.9-3.2 13.8-1.6 1-3.5 1.5-5.3 1.5zM454.6 357.1c-15.7 0-28-16.3-28-37 0-20.8 12.3-37 28-37s28 16.3 28 37-12.3 37-28 37z m0-54c-2.8 0-8 6.5-8 17 0 10.6 5.2 17 8 17s8-6.5 8-17c0-10.6-5.2-17-8-17z"  /><path d="M857.8 212.1c-3 0-5.9-1.3-7.9-3.8l-37.5-47.9c-2.7-3.5-2.8-8.3-0.3-11.9l37.5-54.1c3.1-4.5 9.4-5.7 13.9-2.5 4.5 3.1 5.7 9.4 2.5 13.9l-33.3 48.1 33 42.1c3.4 4.3 2.6 10.6-1.7 14-1.8 1.4-4 2.1-6.2 2.1z" fill="#DD6E22" /><path d="M139.2 212.1c-2.2 0-4.3-0.7-6.2-2.1-4.3-3.4-5.1-9.7-1.7-14l33-42.1-33.3-48.1c-3.1-4.5-2-10.8 2.5-13.9 4.5-3.1 10.8-2 13.9 2.5l37.5 54.1c2.5 3.6 2.4 8.4-0.3 11.9l-37.5 47.9c-2 2.5-4.9 3.8-7.9 3.8z" fill="#DD6E22" /></svg>