<?xml version="1.0" standalone="no"?><!DOCTYPE svg PUBLIC "-//W3C//DTD SVG 1.1//EN" "http://www.w3.org/Graphics/SVG/1.1/DTD/svg11.dtd"><svg class="icon" width="48px" height="48.00px" viewBox="0 0 1024 1024" version="1.1" xmlns="http://www.w3.org/2000/svg"><path d="M796.4 293.4H259.2c-5.5 0-10-4.5-10-10s4.5-10 10-10h537.2c5.5 0 10 4.5 10 10s-4.5 10-10 10z" fill="#DD6E22" /><path d="M851.6 977.6c-0.9 0-1.9-0.1-2.9-0.4-5.3-1.6-8.3-7.1-6.7-12.4 25.2-84.4 65.2-452.6 15.1-533.3-100.4-158.6-111.2-315.1-111.2-375 0-5.5 4.5-10 10-10s10 4.5 10 10c0 58.2 10.5 210.2 108.2 364.4 30.8 49.5 29.8 178.9 23.5 278.8-7.4 118-24.3 230.4-36.4 270.9-1.4 4.2-5.3 7-9.6 7z"  /><path d="M755.8 726.2h-107c-11.5 0-22.8-1.7-33.7-5.2-22.3-7.1-41.5-20.8-55.5-39.7-14.3-19.2-21.9-42.1-21.9-66.2 0-64.7 25.3-125.7 71.2-171.5 22.1-22.3 48.1-39.8 77.1-52.1 30-12.7 61.7-19.1 94.5-19.1h59.6c5.5 0 10 4.5 10 10s-4.5 10-10 10h-59.6c-59.6 0-115.5 23.2-157.4 65.3-42.1 42.1-65.3 98-65.3 157.4 0 39.8 25.5 74.7 63.4 86.8 8.9 2.8 18.2 4.3 27.6 4.3h107c5.5 0 10 4.5 10 10s-4.5 10-10 10z"  /><path d="M582.2 974.6c-5.5 0-10-4.5-10-10V800.4c0-51.9 42.3-94.2 94.2-94.2h84.9c5.5 0 10 4.5 10 10s-4.5 10-10 10h-84.9c-40.9 0-74.2 33.3-74.2 74.2v164.2c0 5.5-4.5 10-10 10zM204.1 977.6c-4.3 0-8.3-2.8-9.6-7.1-12.1-40.5-29-152.9-36.4-270.9-6.2-99.9-7.2-229.3 23.5-278.7 97.7-154.3 108.2-306.3 108.2-364.5 0-5.5 4.5-10 10-10s10 4.5 10 10c0 59.9-10.8 216.5-111.3 375.1-50.1 80.6-10.1 448.9 15.1 533.3 1.6 5.3-1.4 10.9-6.7 12.4-0.9 0.3-1.9 0.4-2.8 0.4z"  /><path d="M406.9 726.2h-107c-5.5 0-10-4.5-10-10s4.5-10 10-10h107c9.4 0 18.7-1.4 27.6-4.3 37.9-12.1 63.4-46.9 63.4-86.8 0-59.4-23.2-115.3-65.3-157.4-41.9-42.1-97.8-65.3-157.4-65.3h-59.6c-5.5 0-10-4.5-10-10s4.5-10 10-10h59.6c32.7 0 64.5 6.4 94.5 19.1 29 12.3 54.9 29.8 77.1 52.1 45.9 45.9 71.1 106.8 71.1 171.5 0 24-7.6 46.9-21.9 66.2-14 18.9-33.2 32.6-55.5 39.7-10.8 3.4-22.1 5.2-33.6 5.2z"  /><path d="M473.4 974.6c-5.5 0-10-4.5-10-10V800.4c0-40.9-33.3-74.2-74.2-74.2h-84.9c-5.5 0-10-4.5-10-10s4.5-10 10-10h84.9c51.9 0 94.2 42.3 94.2 94.2v164.2c0 5.5-4.4 10-10 10z"  /></svg>