<?xml version="1.0" standalone="no"?><!DOCTYPE svg PUBLIC "-//W3C//DTD SVG 1.1//EN" "http://www.w3.org/Graphics/SVG/1.1/DTD/svg11.dtd"><svg class="icon" width="48px" height="48.00px" viewBox="0 0 1024 1024" version="1.1" xmlns="http://www.w3.org/2000/svg"><path d="M739.2 938.2c-3.1 0-6.2-1.4-8.1-4.1-0.5-0.6-43.9-60.9-76.1-112.2-45.8 44.1-114.2 69-198.7 72.1-71.7 2.7-154.1-10.7-231.8-37.6-75.1-26-139.5-62.2-181.4-101.7-2.1-2-3.2-4.7-3.1-7.6 1.8-62 16.2-133.8 42.7-213.3C106.3 463 139.3 387.7 178 316c36.9-68.3 77.4-130.5 117.2-179.9 41.2-51.2 79.4-85.7 110.5-99.8 0.4-0.2 0.8-0.3 1.1-0.4 93.5-29.3 191.3 0.2 251.6 37.5 1.8 1.1 3.1 2.7 3.9 4.6 10 23.3 2 59.6-21.3 97.2-15.1 24.2-35.2 46.6-56.8 62.9-24.8 18.9-51.2 29.5-76.3 30.9-2.4 0.1-4.7-0.6-6.6-2-35.8-27.1-45.6-46.6-54.1-63.8-2.2-4.5-4.4-8.8-6.9-12.9-5.1-5.2-11.9-10.7-16.7-8.8-3.4 1.4-15.2 9.9-24.6 62.9-8.5 48.4-13 122.3-13.5 220 51.7-25.1 114.2-31.5 167.2-16.3 40.4 11.6 71.8 35 88.5 66 17.4 19.4 46.5 57.9 80.2 102.3 41.4 54.7 88.4 116.7 131.2 167.1 59.6 70 85.5 86.9 96.8 88.7 5.5 0.9 9.2 6 8.3 11.4-0.9 5.5-6 9.2-11.4 8.3-43.6-7-131.1-118.4-240.9-263.4-33.9-44.8-63.2-83.4-79.9-101.8-0.6-0.6-1.1-1.3-1.5-2.1-14.2-27.1-40.8-46.9-76.9-57.2-53.2-15.2-117.1-6.6-166.7 22.4-3.1 1.8-6.9 1.8-10 0s-5-5.1-5-8.7c0-107.2 4.7-188 13.8-240.2 8.2-46.5 19.9-71.2 36.8-78 12.3-4.9 25.6-0.1 39.3 14.3 0.5 0.5 0.9 1 1.2 1.6 3.2 5.2 5.8 10.4 8.3 15.4 7.7 15.5 15.7 31.5 45.3 54.5 48.3-4.6 91.3-47.8 113.8-84.1 18.3-29.4 26.2-58.7 20.9-76-56.7-34.1-146.2-60.3-231.6-33.8-28.2 13-63.7 45.4-102.6 93.8-39 48.4-78.8 109.6-115.2 176.8C114 476.8 64.7 628.6 60.2 743.2c86 78.7 258.4 135.9 395.4 130.8 84.9-3.2 151.9-29.1 193.8-75.1 2.1-2.3 5.2-3.5 8.3-3.2 3.1 0.3 5.9 2.1 7.6 4.7 32.1 52.7 81.6 121.2 82 121.9 3.2 4.5 2.2 10.7-2.3 14-1.7 1.3-3.7 1.9-5.8 1.9z"  /><path d="M974 548.3c-3.5 0-6.9-1.8-8.7-5.1-0.1-0.2-12.9-22.8-36.5-46.6-21.4-21.5-56.3-48.5-101.3-54.7-59.3-8.2-122.3 20.4-187.4 85.1-3.9 3.9-10.2 3.9-14.1 0-3.9-3.9-3.9-10.2 0-14.1 69.8-69.4 138.6-99.9 204.4-90.7 40.2 5.6 79.3 26.7 113.1 60.9 25.3 25.6 38.8 49.4 39.3 50.4 2.7 4.8 1 10.9-3.8 13.6-1.7 0.8-3.3 1.2-5 1.2z"  /><path d="M465.1 732c-19.6 0-37.7-3.6-53.4-8.6-48.1-15.2-81.8-45-83.2-46.2l13.3-14.9c0.3 0.3 32.3 28.5 76.4 42.3 57.6 18 108.4 4 150.8-41.6l14.6 13.6c-39.2 42.3-81.4 55.4-118.5 55.4z" fill="#E7711E" /></svg>